<?xml version="1.0" encoding="UTF-8"?>
<svg width="92.9608799px" height="75.3754717px" viewBox="0 0 92.9608799 75.3754717" version="1.1" xmlns="http://www.w3.org/2000/svg" xmlns:xlink="http://www.w3.org/1999/xlink">
    <title>Group</title>
    <g id="0425_프로토타입_수정" stroke="none" stroke-width="1" fill="none" fill-rule="evenodd">
        <g id="iPad-Air-10.9”_-썰기-화면" transform="translate(-823.125677, -41.131012)">
            <g id="Group" transform="translate(869.606117, 78.818748) rotate(-60.000000) translate(-869.606117, -78.818748) translate(850.809484, 36.000000)">
                <path d="M7.53685343,34.3042555 C9.72783014,53.0809018 12.8660218,68.1664249 14.546717,67.9986134 C16.2274122,67.8308019 15.8149281,52.4738619 13.6231627,33.6957565 C11.4329747,14.9191102 8.2947831,-0.167142565 6.61329918,0.00139853815 C4.93260395,0.169210026 5.34587673,15.52615 7.53685343,34.3042555" id="Fill-173" fill="#399100"></path>
                <path d="M30.2478175,35.0988397 C28.057698,53.8745583 24.9180273,68.9606519 23.2373847,68.7928421 C21.556742,68.6250324 21.9707906,53.2675249 24.16091,34.4903471 C26.3526068,15.7146285 29.4907002,0.62780535 31.1713428,0.795615067 C32.8519855,0.964154392 32.4387256,16.3209323 30.2478175,35.0988397" id="Fill-174" fill="#399100"></path>
                <path d="M28.5522188,75.4883841 C28.7760136,80.8470511 24.4769523,85.3073684 19.091936,85.3073684 C13.7127897,85.3073684 9.41372839,80.8470511 9.63752318,75.4883841 C9.54507025,57.6039884 10.4226393,35.2417324 12.9019921,17.5656603 C13.5044037,13.6031267 14.85451,5.93681933 19.4749553,6.32130423 C23.5348129,6.52304917 24.7579799,12.8889789 25.3075612,16.9297252 C26.9203512,27.8524588 27.4141672,33.3397748 27.7098699,37.1341876 C28.6718206,49.6906166 28.7246509,62.7411745 28.5522188,75.4883841" id="Fill-175" fill="#FFDE17"></path>
                <path d="M23.2762229,58.0802457 L23.2762229,55.8790781 L24.9770388,55.8790781 C24.9770388,56.492375 24.9770388,57.300878 24.9784857,58.0882579 L23.2762229,58.0802457 L23.2762229,58.0802457 Z M23.2704354,55.2453865 L23.2704354,53.0383918 L24.9647403,53.0383918 C24.9647403,53.7740567 24.9712513,54.5097216 24.9712513,55.2453865 L23.2704354,55.2453865 L23.2704354,55.2453865 Z M20.0713678,64.1425615 L20.0713678,61.9348385 L22.653338,61.9348385 C22.653338,62.6807007 22.6562318,63.4185507 22.6584021,64.1564008 L20.0713678,64.1425615 L20.0713678,64.1425615 Z M22.646827,58.7139373 C22.646827,59.5821675 22.653338,60.4452991 22.653338,61.3011469 L20.0713678,61.3011469 C20.0713678,60.4452991 20.0713678,59.5763405 20.0648568,58.7139373 L22.646827,58.7139373 L22.646827,58.7139373 Z M20.0583458,52.4039719 L22.640316,52.4039719 L22.640316,49.6645306 L20.0583458,49.6645306 L20.0583458,52.4039719 Z M20.0583458,46.437074 L22.633805,46.437074 C22.633805,47.3060327 22.633805,48.1684359 22.640316,49.0308391 L20.0583458,49.0308391 L20.0583458,46.437074 L20.0583458,46.437074 Z M20.0583458,45.8026541 L22.633805,45.8026541 L22.633805,42.7594779 L20.0583458,42.7594779 L20.0583458,45.8026541 Z M20.0583458,42.125058 L22.633805,42.125058 L22.633805,39.3033096 L20.0583458,39.3033096 L20.0583458,42.125058 Z M20.0583458,36.0816801 L22.640316,36.0816801 C22.640316,36.9440833 22.640316,37.8057581 22.633805,38.6688897 L20.0583458,38.6688897 L20.0583458,36.0816801 L20.0583458,36.0816801 Z M20.0583458,35.4479885 L22.640316,35.4479885 L22.640316,32.8607789 L20.0583458,32.8607789 L20.0583458,35.4479885 Z M20.0648568,55.2453865 L22.640316,55.2453865 L22.640316,53.0383918 L20.0648568,53.0383918 L20.0648568,55.2453865 Z M20.0648568,58.0802457 L22.646827,58.0802457 L22.646827,55.8790781 L20.0648568,55.8790781 L20.0648568,58.0802457 Z M20.0583458,29.4111661 L22.646827,29.4111661 C22.646827,30.3500493 22.640316,31.2874758 22.640316,32.226359 L20.0583458,32.226359 L20.0583458,29.4111661 L20.0583458,29.4111661 Z M20.0583458,26.7227115 L22.653338,26.7227115 C22.646827,27.4073897 22.646827,28.0920679 22.646827,28.7774745 L20.0583458,28.7774745 L20.0583458,26.7227115 L20.0583458,26.7227115 Z M20.0648568,23.5768335 L22.653338,23.5768335 L22.653338,26.0751807 L20.0583458,26.0620698 C20.0583458,25.2324438 20.0648568,24.4079164 20.0648568,23.5768335 L20.0648568,23.5768335 Z M20.0648568,22.9424136 L22.659849,22.9424136 L22.659849,20.7419743 L20.0648568,20.7419743 L20.0648568,22.9424136 Z M20.0713678,17.9012881 L22.6721475,17.9012881 C22.6656365,18.6376814 22.6656365,19.3660625 22.6656365,20.1082828 L20.0648568,20.1082828 C20.0648568,19.3726179 20.0648568,18.6376814 20.0713678,17.9012881 L20.0713678,17.9012881 Z M20.0713678,15.3716206 L22.6786585,15.3716206 C22.6721475,15.9994851 22.6721475,16.6331766 22.6721475,17.2675966 L20.0713678,17.2675966 L20.0713678,15.3716206 L20.0713678,15.3716206 Z M20.0778788,12.8412247 L22.6851695,12.8412247 C22.6851695,13.4683608 22.6786585,14.1027807 22.6786585,14.7372006 L20.0713678,14.7372006 C20.0713678,14.1027807 20.0713678,13.4683608 20.0778788,12.8412247 L20.0778788,12.8412247 Z M24.9647403,52.4039719 L23.2704354,52.4039719 L23.2704354,49.6645306 L24.9582293,49.6645306 C24.9582293,50.5779205 24.9647403,51.4913104 24.9647403,52.4039719 L24.9647403,52.4039719 Z M24.9647403,46.437074 L24.9647403,49.0308391 L23.2704354,49.0308391 C23.2646478,48.1684359 23.2646478,47.3060327 23.2646478,46.437074 L24.9647403,46.437074 L24.9647403,46.437074 Z M23.2646478,42.7594779 L24.9712513,42.7594779 C24.9647403,43.7741128 24.9647403,44.7887476 24.9647403,45.8026541 L23.2646478,45.8026541 L23.2646478,42.7594779 L23.2646478,42.7594779 Z M23.2646478,39.3033096 L24.9835498,39.3033096 C24.9835498,40.2472915 24.9770388,41.1869031 24.9712513,42.125058 L23.2646478,42.125058 L23.2646478,39.3033096 L23.2646478,39.3033096 Z M23.2704354,36.0816801 L25.0023593,36.0816801 C24.9958483,36.9440833 24.9958483,37.8057581 24.9893374,38.6688897 L23.2646478,38.6688897 C23.2704354,37.8057581 23.2704354,36.9440833 23.2704354,36.0816801 L23.2704354,36.0816801 Z M23.2704354,32.8607789 L25.0276799,32.8607789 C25.0211689,33.7224537 25.0146579,34.5855853 25.0088703,35.4479885 L23.2704354,35.4479885 L23.2704354,32.8607789 L23.2704354,32.8607789 Z M23.2762229,29.4111661 L25.0587879,29.4111661 C25.0464894,30.3500493 25.0407018,31.2874758 25.0341909,32.226359 L23.2704354,32.226359 C23.2704354,31.2874758 23.2762229,30.3500493 23.2762229,29.4111661 L23.2762229,29.4111661 Z M23.2827339,26.7227115 L25.0841085,26.7227115 L25.0652989,28.7774745 L23.2762229,28.7774745 C23.2762229,28.0920679 23.2762229,27.4073897 23.2827339,26.7227115 L23.2827339,26.7227115 Z M19.4477594,12.2060764 L16.8209358,12.2060764 C16.8462563,11.5476199 16.8715768,10.888435 16.8968973,10.2285217 L19.4477594,10.2285217 L19.4477594,12.2060764 L19.4477594,12.2060764 Z M19.4412484,14.7372006 L16.7456976,14.7372006 C16.7637837,14.1027807 16.7833167,13.4683608 16.8021262,12.8412247 L19.4477594,12.8412247 C19.4412484,13.4683608 19.4412484,14.1027807 19.4412484,14.7372006 L19.4412484,14.7372006 Z M19.4477594,67.0589994 L17.0792051,67.0589994 C17.0857161,66.2985696 17.0857161,65.5366829 17.0922271,64.7762531 L19.4477594,64.7762531 L19.4477594,67.0589994 L19.4477594,67.0589994 Z M19.4412484,61.9348385 L19.4412484,64.1425615 L17.0922271,64.1425615 C17.0922271,63.4068966 17.0980147,62.6770588 17.0980147,61.9348385 L19.4412484,61.9348385 L19.4412484,61.9348385 Z M17.0726941,58.7139373 L19.434014,58.7139373 C19.4412484,59.5763405 19.4412484,60.4452991 19.4412484,61.3011469 L17.0922271,61.3011469 C17.0857161,60.4452991 17.0792051,59.5763405 17.0726941,58.7139373 L17.0726941,58.7139373 Z M17.048097,55.8790781 L19.434014,55.8790781 L19.434014,58.0802457 L17.0661831,58.0802457 C17.0596721,57.3438524 17.054608,56.614743 17.048097,55.8790781 L17.048097,55.8790781 Z M17.003967,53.0383918 L19.434014,53.0383918 L19.434014,55.2453865 L17.0350751,55.2453865 C17.0292875,54.5097216 17.0162655,53.7740567 17.003967,53.0383918 L17.003967,53.0383918 Z M16.9533259,49.6645306 L19.4282265,49.6645306 L19.4282265,52.4039719 L16.997456,52.4039719 C16.984434,51.484755 16.9721355,50.5779205 16.9533259,49.6645306 L16.9533259,49.6645306 Z M16.8968973,46.437074 L19.4282265,46.437074 L19.4282265,49.0308391 L16.9410274,49.0308391 C16.9280054,48.1618804 16.9091959,47.2994772 16.8968973,46.437074 L16.8968973,46.437074 Z M16.8585548,44.541098 C16.8462563,43.9452823 16.8397453,43.3494666 16.8274468,42.7594779 L19.4282265,42.7594779 L19.4282265,45.8026541 L16.8838754,45.8026541 C16.8780878,45.3845633 16.8650658,44.9599172 16.8585548,44.541098 L16.8585548,44.541098 Z M16.7637837,39.3033096 L19.4282265,39.3033096 L19.4282265,42.125058 L16.8151482,42.125058 C16.7956152,41.1869031 16.7833167,40.2472915 16.7637837,39.3033096 L16.7637837,39.3033096 Z M16.7138661,36.0816801 L19.4282265,36.0816801 L19.4282265,38.6688897 L16.7522086,38.6688897 C16.7391866,37.8057581 16.7261646,36.9440833 16.7138661,36.0816801 L16.7138661,36.0816801 Z M16.669736,32.8607789 L19.4282265,32.8607789 L19.4282265,35.4479885 L16.7008441,35.4479885 C16.6885456,34.5855853 16.682758,33.7224537 16.669736,32.8607789 L16.669736,32.8607789 Z M16.632117,29.4111661 L19.4282265,29.4111661 L19.4282265,32.226359 L16.6632251,32.226359 C16.6509265,31.2874758 16.6379045,30.3500493 16.632117,29.4111661 L16.632117,29.4111661 Z M19.4282265,26.7227115 L19.4282265,28.7774745 L16.632117,28.7774745 C16.625606,28.0920679 16.625606,27.4073897 16.619095,26.7227115 L19.4282265,26.7227115 L19.4282265,26.7227115 Z M16.625606,23.5768335 L19.434014,23.5768335 C19.434014,24.4013609 19.4282265,25.2324438 19.4282265,26.0562428 L16.619095,26.0438603 C16.619095,25.2193329 16.619095,24.4013609 16.625606,23.5768335 L16.625606,23.5768335 Z M16.6379045,20.7419743 L19.434014,20.7419743 L19.434014,22.9424136 L16.625606,22.9424136 C16.632117,22.2074771 16.625606,21.4718122 16.6379045,20.7419743 L16.6379045,20.7419743 Z M16.682758,17.9012881 L19.4412484,17.9012881 C19.434014,18.6376814 19.434014,19.3726179 19.434014,20.1082828 L16.6444155,20.1082828 C16.6509265,19.3726179 16.669736,18.6376814 16.682758,17.9012881 L16.682758,17.9012881 Z M16.7261646,15.3716206 L19.4412484,15.3716206 L19.4412484,17.2675966 L16.6885456,17.2675966 C16.7008441,16.6331766 16.7138661,15.9994851 16.7261646,15.3716206 L16.7261646,15.3716206 Z M14.099341,61.3011469 L14.099341,58.7139373 L16.4432982,58.7139373 C16.4498092,59.5763405 16.4548733,60.4452991 16.4621077,61.3011469 L14.099341,61.3011469 L14.099341,61.3011469 Z M14.099341,55.8790781 L16.4179777,55.8790781 C16.4244887,56.614743 16.4309997,57.3438524 16.4367872,58.0802457 L14.099341,58.0802457 L14.099341,55.8790781 L14.099341,55.8790781 Z M14.099341,53.0383918 L16.3738476,53.0383918 C16.3861462,53.7740567 16.3991681,54.5097216 16.4049557,55.2453865 L14.099341,55.2453865 L14.099341,53.0383918 L14.099341,53.0383918 Z M14.099341,49.6645306 L16.3232066,49.6645306 C16.3420161,50.5779205 16.3550381,51.484755 16.3680601,52.4039719 L14.099341,52.4039719 L14.099341,49.6645306 L14.099341,49.6645306 Z M14.099341,46.437074 L16.266778,46.437074 C16.2790765,47.2994772 16.2986095,48.1618804 16.310908,49.0308391 L14.099341,49.0308391 L14.099341,46.437074 L14.099341,46.437074 Z M14.099341,42.7594779 L16.1973274,42.7594779 C16.2103494,43.356022 16.2161369,43.9576648 16.2291589,44.5534805 C16.2349465,44.9657442 16.247245,45.3911188 16.253756,45.8026541 L14.099341,45.8026541 L14.099341,42.7594779 L14.099341,42.7594779 Z M14.099341,39.3033096 L16.1343878,39.3033096 C16.1474098,40.2472915 16.1654959,41.1869031 16.1843054,42.125058 L14.099341,42.125058 L14.099341,39.3033096 L14.099341,39.3033096 Z M14.099341,36.0816801 L16.0844702,36.0816801 C16.0960453,36.9440833 16.1090673,37.8057581 16.1220893,38.6688897 L14.099341,38.6688897 L14.099341,36.0816801 L14.099341,36.0816801 Z M14.099341,32.8607789 L16.0396167,32.8607789 C16.0461277,33.7224537 16.0591497,34.5855853 16.0714482,35.4479885 L14.099341,35.4479885 L14.099341,32.8607789 L14.099341,32.8607789 Z M14.099341,29.4111661 L16.0019976,29.4111661 C16.0085086,30.3500493 16.0208071,31.2874758 16.0331057,32.226359 L14.099341,32.226359 L14.099341,29.4111661 L14.099341,29.4111661 Z M14.099341,26.7227115 L15.9896991,26.7227115 C15.9962101,27.4073897 15.9962101,28.0920679 16.0019976,28.7774745 L14.099341,28.7774745 L14.099341,26.7227115 L14.099341,26.7227115 Z M14.099341,23.5768335 L15.9962101,23.5768335 C15.9896991,24.4013609 15.9896991,25.2193329 15.9896991,26.0373049 L14.099341,26.0307494 L14.099341,23.5768335 L14.099341,23.5768335 Z M14.099341,20.7419743 L16.0085086,20.7419743 C15.9962101,21.4718122 16.0019976,22.2074771 15.9962101,22.9424136 L14.099341,22.9424136 L14.099341,20.7419743 L14.099341,20.7419743 Z M14.099341,17.9012881 L16.0526387,17.9012881 C16.0396167,18.6376814 16.0208071,19.3726179 16.0142962,20.1082828 L14.099341,20.1082828 L14.099341,17.9012881 L14.099341,17.9012881 Z M14.099341,15.3716206 L16.0960453,15.3716206 C16.0844702,15.9994851 16.0714482,16.6331766 16.0591497,17.2675966 L14.099341,17.2675966 L14.099341,15.3716206 L14.099341,15.3716206 Z M14.099341,12.8412247 L16.1720069,12.8412247 C16.1531973,13.4683608 16.1343878,14.1027807 16.1155783,14.7372006 L14.099341,14.7372006 L14.099341,12.8412247 L14.099341,12.8412247 Z M14.099341,10.2285217 L16.266778,10.2285217 C16.2414574,10.888435 16.2161369,11.5476199 16.1908164,12.2060764 L14.099341,12.2060764 L14.099341,10.2285217 L14.099341,10.2285217 Z M13.4706685,22.9424136 L11.8516017,22.9424136 C11.8581127,22.4988295 11.8631768,21.2015828 11.8631768,20.7587271 L13.4706685,20.7419743 L13.4706685,22.9424136 L13.4706685,22.9424136 Z M13.4706685,26.0249224 L11.8450907,26.018367 C11.8516017,25.2069504 11.8516017,24.3889785 11.8516017,23.5768335 L13.4706685,23.5768335 L13.4706685,26.0249224 L13.4706685,26.0249224 Z M13.4706685,28.7774745 L11.8393032,28.7774745 C11.8450907,28.0920679 11.8450907,27.4073897 11.8450907,26.7227115 L13.4706685,26.7227115 L13.4706685,28.7774745 L13.4706685,28.7774745 Z M11.8393032,32.226359 L13.4706685,32.226359 L13.4706685,29.4111661 L11.8393032,29.4111661 L11.8393032,32.226359 Z M13.4706685,35.4479885 L11.8327922,35.4479885 C11.8327922,34.5855853 11.8327922,33.7224537 11.8393032,32.8607789 L13.4706685,32.8607789 L13.4706685,35.4479885 L13.4706685,35.4479885 Z M11.8327922,38.6688897 L13.4706685,38.6688897 L13.4706685,36.0816801 L11.8327922,36.0816801 L11.8327922,38.6688897 Z M11.8327922,42.125058 L13.4706685,42.125058 L13.4706685,39.3033096 L11.8327922,39.3033096 L11.8327922,42.125058 Z M11.8327922,45.8026541 L13.4706685,45.8026541 L13.4706685,42.7594779 L11.8327922,42.7594779 L11.8327922,45.8026541 Z M11.8327922,49.0308391 L13.4706685,49.0308391 L13.4706685,46.437074 L11.8327922,46.437074 L11.8327922,49.0308391 Z M13.4706685,52.4039719 L11.8393032,52.4039719 C11.8393032,51.4913104 11.8327922,50.5779205 11.8327922,49.6645306 L13.4706685,49.6645306 L13.4706685,52.4039719 L13.4706685,52.4039719 Z M11.8393032,55.2453865 L13.4706685,55.2453865 L13.4706685,53.0383918 L11.8393032,53.0383918 L11.8393032,55.2453865 Z M25.5941362,53.0383918 L27.2942286,53.0522311 L27.2652909,52.354442 L25.5941362,52.4039719 C25.5941362,51.4913104 25.5876252,50.5779205 25.5876252,49.6645306 L27.1828183,49.6434076 L27.1437524,49.0293823 L25.5941362,49.0308391 L25.5941362,46.437074 L27.0569391,46.4297902 L27.0287248,45.8084811 L25.5941362,45.8026541 C25.5941362,44.7887476 25.5941362,43.7741128 25.6006472,42.7594779 L26.8731845,42.7587495 L26.8355654,42.1039349 L25.6006472,42.125058 C25.6071582,40.1088991 25.6194567,38.0985673 25.6324787,36.0816801 L26.4152447,36.0802233 L26.3631567,35.4560007 L25.6389897,35.4479885 C25.6505648,33.2409938 25.6700978,31.0281721 25.6889073,28.8211774 C25.5876252,27.9085159 25.474768,26.995126 25.3481654,26.0882915 L25.2548411,26.0882915 L23.2827339,26.0817361 L23.2827339,23.5768335 L25.0334674,23.5753768 L24.949548,22.9416852 L23.2892449,22.9424136 L23.2892449,20.7419743 L24.6500423,20.7521717 L24.5596119,20.1060977 L23.2957559,20.1082828 C23.2957559,19.3660625 23.2957559,18.6376814 23.3015435,17.9012881 L24.2463608,17.9012881 L24.1523131,17.2675966 L23.3015435,17.2675966 C23.3080544,15.7649464 23.3080544,14.2805057 23.3145654,12.8026205 L23.3145654,12.796065 C23.1380452,12.1121152 22.9304169,11.4463749 22.6909571,10.8243374 C22.6909571,11.2810324 22.6909571,11.7435544 22.6851695,12.2060764 L20.0778788,12.2060764 L20.0778788,10.2285217 L22.4457097,10.2285217 C22.3509386,10.0129209 22.2496565,9.7973201 22.1433103,9.59410178 L20.0778788,9.59410178 C20.0836664,8.80162315 20.0836664,8.00186072 20.0836664,7.21011047 C19.8818256,7.08992759 19.6741973,6.98722586 19.453547,6.91147423 C19.453547,7.79937077 19.453547,8.6996498 19.4477594,9.59410178 L16.9280054,9.59410178 C16.9663479,8.68144027 17.003967,7.76805039 17.054608,6.86121593 C16.8274468,6.93114052 16.619095,7.02583006 16.4114667,7.14018589 C16.3680601,7.95888623 16.3362286,8.77612982 16.2986095,9.59410178 L14.1883245,9.59410178 C13.9242676,10.0828455 13.6840843,10.6218475 13.4706685,11.1928983 L13.4706685,12.2060764 L13.1147342,12.2213724 L12.9295327,12.8434098 L13.4706685,12.8412247 L13.4706685,14.7372006 L12.4940196,14.7372006 L12.3392027,15.3701638 L13.4706685,15.3716206 L13.4706685,17.2675966 L12.0158234,17.2675966 C11.9839919,17.4831974 11.9521604,17.6922427 11.9210523,17.9012881 L13.4706685,17.9012881 L13.4706685,20.1082828 L11.6454203,20.0980855 C11.5057957,20.8199111 11.31553,22.4310901 11.1939915,23.5353158 C11.1939915,24.3285228 11.2214824,25.2193329 11.2149714,26.0118115 L10.9509145,26.0118115 C10.9255939,26.2470786 10.8944859,26.486716 10.8756763,26.7227115 L11.2149714,26.7227115 C11.2149714,27.4073897 11.2149714,28.0920679 11.2084604,28.7774745 L10.6673246,28.7483393 L10.6036615,29.4089809 L11.2084604,29.4111661 L11.2084604,32.226359 L10.3591376,32.226359 L10.283176,32.8491248 L11.2084604,32.8607789 C11.2033963,33.7224537 11.2033963,34.5855853 11.2033963,35.4479885 L10.0835056,35.4552723 L10.0357583,36.0787666 L11.2033963,36.0816801 L11.2033963,38.6688897 L9.84766298,38.6652478 L9.80425637,39.2894704 L11.2033963,39.3033096 L11.2033963,42.125058 L9.61543759,42.125058 L9.59662806,42.7594779 L11.2033963,42.7594779 L11.2033963,45.8026541 L9.39768107,45.8092095 L9.36367922,46.4297902 L11.2033963,46.437074 L11.2033963,49.0308391 L9.29422863,49.0308391 L9.29422863,49.6645306 L11.2033963,49.6645306 C11.2033963,50.5779205 11.2084604,51.4913104 11.2084604,52.4039719 L10.2079379,52.4039719 L10.2079379,53.0383918 L11.2084604,53.0383918 L11.2084604,55.2453865 L11.1216471,55.2453865 L11.8385797,57.3081618 C11.8385797,57.1872505 11.8450907,55.9934339 11.8393032,55.8790781 L13.4706685,55.8790781 L13.4706685,58.0802457 L12.0013546,58.0460118 L12.2675818,58.7139373 L13.4706685,58.7139373 L13.4706685,61.3011469 L13.1805676,61.3011469 L13.1805676,61.9348385 L13.4706685,61.9348385 L13.4706685,62.2902884 L14.1036816,64.0617112 L14.099341,61.9348385 L16.4678953,61.9348385 C16.4678953,62.6770588 16.4621077,63.4068966 16.4621077,64.1425615 L14.0870424,64.1498453 L14.3648448,64.7806234 L16.4621077,64.7762531 C16.4548733,65.5366829 16.4548733,66.2985696 16.4498092,67.0589994 L15.214891,67.0342345 L15.4731603,67.6941477 L16.4498092,67.6934193 C16.4432982,67.9279581 16.4874283,69.9208087 16.4809173,70.1560758 L17.1038022,71.5924433 C17.1095898,71.3579046 17.0726941,67.9279581 17.0792051,67.6934193 L19.4477594,67.6934193 C19.453547,68.8151262 19.4506532,70.7460645 19.4506532,71.8612159 L20.0836664,71.0731076 C20.0836664,69.9506723 20.0836664,68.8151262 20.0778788,67.6934193 L21.2042805,67.6934193 L21.4972751,67.0626413 L20.0778788,67.0589994 L20.0778788,64.7762531 L22.659849,64.7660557 L22.659849,64.8272398 L23.2892449,64.8272398 C23.2892449,64.6058119 23.2885215,64.3821989 23.287798,64.1614994 L23.2885215,64.1593143 L23.287798,64.1593143 C23.2863511,63.4207359 23.2827339,62.6814291 23.2827339,61.9348385 L24.5552712,61.9348385 L24.5552712,61.3011469 L23.2827339,61.3011469 C23.2827339,60.4452991 23.2762229,59.5821675 23.2762229,58.7139373 L24.9582293,58.7197643 L24.9792091,58.6374573 C24.980656,59.0686589 24.9821029,59.4794658 24.9835498,59.8239901 L25.6136692,59.1895701 C25.6071582,58.0860728 25.6071582,56.97602 25.6071582,55.8790781 L26.942635,55.8790781 L26.942635,55.2453865 L25.6006472,55.2453865 C25.6006472,54.5097216 25.5941362,53.7740567 25.5941362,53.0383918 L25.5941362,53.0383918 Z" id="Fill-176" fill="#FBB040"></path>
                <path d="M18.8560108,38.3791651 L18.414308,38.3791651 C17.6846442,38.3791651 17.0932667,37.7495462 17.0932667,36.9718326 L17.0932667,36.7804353 C17.0932667,36.0494885 17.6171279,35.4475831 18.2874099,35.3791651 L18.9829088,35.3791651 C19.4929414,35.4311282 19.9191886,35.7922714 20.0932667,36.2850543 L20.0932667,37.4672136 C19.9045466,38.0007009 19.4213578,38.3791651 18.8560108,38.3791651" id="Fill-177" fill="#FFEE89"></path>
                <path d="M20.187601,38.0621778 L20.187601,36.9331456 C20.245285,37.0803747 20.2762794,37.2391836 20.2762794,37.4062638 L20.2762794,37.5890595 C20.2762794,37.7553126 20.245285,37.9149487 20.187601,38.0621778 M19.0123965,36.0679677 L18.2762794,36.0679677 C18.3201882,36.0638321 18.3658188,36.0621778 18.4105885,36.0621778 L18.8780874,36.0621778 C18.9228571,36.0621778 18.9676268,36.0638321 19.0123965,36.0679677" id="Fill-178" fill="#FDD79E"></path>
                <path d="M19.1110107,41.9772413 L17.6688767,41.9772413 C17.2839246,41.8229136 16.9884389,41.494661 16.8792734,41.091286 C16.872707,40.7393535 16.8669615,40.387421 16.8612159,40.0354885 C16.9859765,39.4312424 17.5235962,38.9772413 18.1670983,38.9772413 L18.6127891,38.9772413 C19.1832406,38.9772413 19.6707919,39.3340731 19.8612159,39.8362506 L19.8612159,41.2129517 C19.729889,41.5608015 19.455744,41.8384281 19.1110107,41.9772413" id="Fill-179" fill="#FFEE89"></path>
                <path d="M18.8260669,41.910254 L18.396365,41.910254 C18.2270165,41.910254 18.0647902,41.8795859 17.9160168,41.8248214 L19.3064151,41.8248214 C19.1576417,41.8795859 18.9954154,41.910254 18.8260669,41.910254 M20.0297071,41.1413603 L20.0297071,39.910254 C20.0827274,40.0402285 20.1112159,40.1811558 20.1112159,40.3279247 L20.1112159,40.7236896 C20.1112159,40.8711887 20.0827274,41.0113858 20.0297071,41.1413603 M17.1547401,41.0325614 C17.1262515,40.9339853 17.1112159,40.8302978 17.1112159,40.7236896 L17.1112159,40.3279247 C17.1112159,40.246143 17.1199208,40.1658218 17.1373304,40.0884213 C17.1428698,40.4031347 17.1484093,40.7178481 17.1547401,41.0325614" id="Fill-180" fill="#FDD79E"></path>
                <path d="M18.3524444,45.5753175 L17.8966525,45.5753175 C17.3468484,45.5753175 16.8734293,45.2682746 16.6577046,44.8259111 C16.6535076,44.6692242 16.65015,44.5125373 16.6476318,44.3566417 C16.6400773,44.0321891 16.6350409,43.7085278 16.6291651,43.3848665 C16.8297807,42.9100577 17.3216665,42.5753175 17.8966525,42.5753175 L18.3524444,42.5753175 C18.9358243,42.5753175 19.4344253,42.9211366 19.6291651,43.4078156 L19.6291651,44.7420282 C19.4344253,45.2287072 18.9358243,45.5753175 18.3524444,45.5753175" id="Fill-181" fill="#FFEE89"></path>
                <path d="M16.9962846,45.5083302 C16.9211066,45.2820809 16.8791651,45.0294725 16.8791651,44.7636845 L16.8791651,44.1684071 C16.8791651,43.935568 16.910819,43.7126136 16.9693788,43.5083302 C16.9749182,43.957534 16.9796663,44.4067377 16.9867884,44.8570397 C16.9891625,45.0734044 16.9923279,45.2908673 16.9962846,45.5083302 M19.7976563,45.3919107 L19.7976563,43.5401809 C19.8506766,43.7356779 19.8791651,43.946551 19.8791651,44.1684071 L19.8791651,44.7636845 C19.8791651,44.9855406 19.8506766,45.1964137 19.7976563,45.3919107" id="Fill-182" fill="#FDD79E"></path>
                <path d="M21.7345898,45.8073684 L21.7198929,45.8073684 C20.8959492,45.8073684 20.2272413,45.231419 20.2272413,44.5209759 L20.2272413,44.0929696 C20.2272413,43.3833177 20.8959492,42.8073684 21.7198929,42.8073684 L21.7345898,42.8073684 C22.5585334,42.8073684 23.2272413,43.3833177 23.2272413,44.0929696 L23.2272413,44.5209759 C23.2272413,45.231419 22.5585334,45.8073684 21.7345898,45.8073684" id="Fill-183" fill="#FFEE89"></path>
                <path d="M21.502539,49.4054446 L21.4878421,49.4054446 C20.6638984,49.4054446 19.9951905,48.7794772 19.9951905,48.0073362 L19.9951905,47.7940946 C19.9951905,47.075264 20.5747986,46.4836905 21.3206651,46.4054446 L21.6697159,46.4054446 C22.4155824,46.4836905 22.9951905,47.075264 22.9951905,47.7940946 L22.9951905,48.0073362 C22.9951905,48.7794772 22.3264826,49.4054446 21.502539,49.4054446" id="Fill-184" fill="#FFEE89"></path>
                <path d="M22.0512159,46.5444192 L21.6712159,46.5444192 C21.7312159,46.5374192 21.7922159,46.5344192 21.8532159,46.5344192 L21.8692159,46.5344192 C21.9312159,46.5344192 21.9912159,46.5374192 22.0512159,46.5444192" id="Fill-185" fill="#FDD79E"></path>
                <path d="M22.461682,52.5035208 L21.7966483,52.5035208 C21.1288589,52.3747894 20.6291651,51.8566658 20.6291651,51.2353971 L20.6291651,50.8020282 C20.6291651,50.0848108 21.297873,49.5035208 22.1218167,49.5035208 L22.1365136,49.5035208 C22.9604572,49.5035208 23.6291651,50.0848108 23.6291651,50.8020282 L23.6291651,51.2353971 C23.6291651,51.8566658 23.1294713,52.3747894 22.461682,52.5035208" id="Fill-186" fill="#FFEE89"></path>
                <path d="M21.7711397,52.3890462 L21.7551397,52.3890462 C21.6341397,52.3890462 21.5151397,52.3760462 21.4011397,52.3500462 L22.1251397,52.3500462 C22.0111397,52.3760462 21.8931397,52.3890462 21.7711397,52.3890462" id="Fill-187" fill="#FDD79E"></path>
                <path d="M21.5638022,35.5131397 L21.5509345,35.5131397 C20.7255669,35.5131397 20.0573684,34.8885693 20.0573684,34.1162325 L20.0573684,33.9048923 C20.0573684,33.1660607 20.6731772,32.5603906 21.4516698,32.5131397 L21.6621478,32.5131397 C22.4415595,32.5603906 23.0573684,33.1660607 23.0573684,33.9048923 L23.0573684,34.1162325 C23.0573684,34.8885693 22.3882507,35.5131397 21.5638022,35.5131397" id="Fill-188" fill="#FFEE89"></path>
                <path d="M22.0378938,32.6491143 L21.8088938,32.6491143 C21.8448938,32.6461143 21.8798938,32.6451143 21.9168938,32.6451143 L21.9308938,32.6451143 C21.9668938,32.6451143 22.0028938,32.6461143 22.0378938,32.6491143" id="Fill-189" fill="#FDD79E"></path>
                <path d="M19.5913504,28.0179492 L17.8274185,28.0179492 C17.520917,27.904971 17.2809789,27.6718641 17.1764897,27.3815531 C17.1757157,27.1663224 17.1741678,26.9510918 17.1733938,26.7365763 C17.3189046,26.3197011 17.7422792,26.0179492 18.2415052,26.0179492 L19.1772637,26.0179492 C19.6107003,26.0179492 19.9860873,26.2446206 20.1733938,26.5764047 L20.1733938,27.5317139 C20.0495547,27.7519499 19.8428984,27.9257075 19.5913504,28.0179492" id="Fill-190" fill="#FFEE89"></path>
                <path d="M18.7489315,29.3839746 L17.8658052,29.3839746 C17.7277482,29.3839746 17.5955349,29.349036 17.475009,29.2876573 L19.1397277,29.2876573 C19.0184713,29.349036 18.8869885,29.3839746 18.7489315,29.3839746 M19.6890338,28.6455421 L19.6890338,27.3839746 C19.7650017,27.572832 19.8073684,27.7871852 19.8073684,28.0147584 C19.8073684,28.2423315 19.7650017,28.4566847 19.6890338,28.6455421 M16.8606919,28.4472418 C16.8263603,28.3112645 16.8073684,28.1658443 16.8073684,28.0147584 C16.8073684,27.8683939 16.8248994,27.7276951 16.8577701,27.5954949 C16.8585006,27.878781 16.8599615,28.1630114 16.8606919,28.4472418" id="Fill-191" fill="#FDD79E"></path>
                <path d="M22.2045312,23.8528857 L21.3025104,23.8528857 C20.6953456,23.655269 20.2535208,23.0465302 20.2535208,22.3265699 C20.2535208,21.6622203 20.6292097,21.0932035 21.1619715,20.8528857 L22.3450701,20.8528857 C22.8787504,21.0932035 23.2535208,21.6622203 23.2535208,22.3265699 C23.2535208,23.0465302 22.8116959,23.655269 22.2045312,23.8528857" id="Fill-192" fill="#FFEE89"></path>
                <path d="M22.6405089,23.3528857 L22.5985834,23.3528857 C22.4728071,23.3528857 22.3524654,23.3304628 22.238335,23.2893541 L23.0007574,23.2893541 C22.8866269,23.3304628 22.7662853,23.3528857 22.6405089,23.3528857 M23.1195462,20.4668689 L22.1195462,20.4668689 C22.2670617,20.3930601 22.4285524,20.3528857 22.5985834,20.3528857 L22.6405089,20.3528857 C22.81054,20.3528857 22.9720307,20.3930601 23.1195462,20.4668689" id="Fill-193" fill="#FDD79E"></path>
                <path d="M24.9158272,32.3971143 C24.4813734,32.3971143 24.1091045,32.145527 23.9544827,31.7875905 C23.955323,31.1867969 23.9586844,30.5860032 23.9595247,29.9844159 C24.1007012,29.6733048 24.4074238,29.4439397 24.7746507,29.3971143 L25.057844,29.3971143 C25.5645667,29.4621937 25.9544827,29.8725111 25.9544827,30.3693365 L25.9544827,31.4161619 C25.9544827,31.9582254 25.4897768,32.3971143 24.9158272,32.3971143" id="Fill-194" fill="#FFEE89"></path>
                <path d="M23.5869504,31.7810889 C23.5442458,31.6382318 23.52147,31.4814857 23.52147,31.3168032 L23.52147,30.0082715 C23.52147,29.8376365 23.546381,29.6749381 23.5912209,29.5271207 C23.5905091,30.2791048 23.5876621,31.0300968 23.5869504,31.7810889 M24.52147,28.7929937 L24.2816123,28.7929937 C24.3207582,28.7850572 24.3606159,28.7810889 24.4011853,28.7810889 C24.4417547,28.7810889 24.4823241,28.7850572 24.52147,28.7929937" id="Fill-195" fill="#FDD79E"></path>
                <path d="M14.05073,84.0639874 C14.05073,84.0639874 10.5351928,82.46684 8.72818103,78.3387496 C2.85111065,64.5147861 0.707960391,32.6811809 2.00798499e-13,7.95929214 C5.03494008,25.7648254 11.5000743,66.7111372 24,82.6148185 C22.3093164,85.0065304 17.363585,85.7092461 14.05073,84.0639874" id="Fill-196" fill="#399100"></path>
                <path d="M22.3380774,84.7792364 C26.5138666,82.9449987 28.3477639,79.0203286 29.8695551,74.7080818 C33.2230508,65.2033293 35.2455274,49.0864163 36.2242394,38.9992039 C37.3330565,27.556568 37.5932667,10.6374954 37.5932667,10.6374954 C37.5918049,10.6411449 32.0250605,35.2088353 28.0203084,50.7323399 C26.1725235,57.8970343 22.97837,64.6792613 19.7235495,71.3286466 C17.9992914,74.8511421 15.4914789,79.5728626 12.9909757,82.637711 C10.8047713,85.3149827 18.1527862,86.6185833 22.3380774,84.7792364" id="Fill-197" fill="#4ABC00"></path>
                <path d="M20.7996154,84.5201813 L16.5497495,84.5201813 C15.7897452,84.5201813 15.1746825,83.8484172 15.1746825,83.0201813 C15.1746825,82.1919453 15.7897452,81.5201813 16.5497495,81.5201813 L20.7996154,81.5201813 C21.5588687,81.5201813 22.1746825,82.1919453 22.1746825,83.0201813 C22.1746825,83.8484172 21.5588687,84.5201813 20.7996154,84.5201813" id="Fill-198" fill="#4ABC00"></path>
            </g>
        </g>
    </g>
</svg>